<svg width="512" height="512" viewBox="0 0 512 512" fill="none" xmlns="http://www.w3.org/2000/svg">
<g clip-path="url(#clip0_41_278)">
<path d="M53.5381 207.952C54.8208 206.666 57.3533 204.671 58.8138 203.449L68.8003 195.049L99.4928 168.807C118.909 152.047 138.459 135.444 158.142 118.997L177.196 103.154C180.485 100.431 183.8 97.6595 187.127 94.9797C188.071 94.2195 188.038 94.2842 189.098 94.223L323.125 94.2222C323.225 112.329 323.217 130.437 323.097 148.544C323.03 168.442 323.082 188.34 323.255 208.237C330.815 195.773 338.282 183.252 345.655 170.676L391.15 94.0322L434.462 167.351C439.95 176.46 445.385 185.601 450.762 194.774C452.38 197.502 457.372 205.468 458.547 208.084L458.59 418.052L421.077 418.065L359.935 418.072L323.575 418.052C314.262 417.85 304.247 418.04 294.882 418.037L240.535 418.057L204.967 418.052C199.58 417.99 194.193 417.99 188.806 418.05C176.042 418.245 162.84 418.07 150.042 418.065C131.301 417.755 111.529 418.042 92.7486 418.07L53.6061 418.057L53.5381 207.952Z" fill="#EB712F"/>
<path d="M53.5381 207.952C98.5373 208.437 143.83 207.571 188.776 208.067L188.806 418.05C176.042 418.245 162.84 418.07 150.042 418.065C131.301 417.755 111.529 418.042 92.7486 418.07L53.6061 418.057L53.5381 207.952Z" fill="#0031AA"/>
<path d="M92.7227 328.693C111.523 328.423 131.178 328.598 150.021 328.67L150.043 418.065C131.301 417.755 111.53 418.043 92.7492 418.07L92.7227 328.693Z" fill="#1C1714"/>
<path d="M117.797 236.63C133.411 234.652 147.649 245.768 149.518 261.395C151.388 277.022 140.174 291.182 124.534 292.945C109.047 294.688 95.0548 283.607 93.2036 268.132C91.3521 252.657 102.336 238.589 117.797 236.63Z" fill="#1C1714"/>
<path d="M323.605 208.076C338.96 208.358 355.085 208.117 370.485 208.112L458.548 208.084L458.59 418.052L421.078 418.065L359.935 418.072L323.575 418.052L323.605 208.076Z" fill="#1C1714"/>
<path d="M359.935 418.072L359.92 377.875C359.905 362.882 357.425 348.485 368.798 336.877C374.465 331.002 382.28 327.682 390.443 327.68C398.548 327.732 406.308 330.975 412.038 336.705C416.07 340.722 418.915 345.772 420.258 351.302C421.533 356.72 421.088 370.615 421.083 376.7L421.078 418.065L359.935 418.072Z" fill="#0031AA"/>
<path d="M347.463 271.85L433.935 271.828L433.918 287.963L347.45 287.978L347.463 271.85Z" fill="#0031AA"/>
<path d="M347.462 231.731L433.927 231.74L433.912 247.24C425.052 247.594 413.802 247.285 404.787 247.288L347.452 247.257C347.405 242.121 347.457 236.876 347.462 231.731Z" fill="#0031AA"/>
<path d="M189.099 94.2229L323.125 94.2222C323.225 112.329 323.218 130.437 323.098 148.544L189.178 148.524C188.844 130.738 189.092 112.055 189.099 94.2229Z" fill="#1C1714"/>
<path d="M204.979 283.672C216.817 283.577 228.655 283.567 240.492 283.645L240.535 418.057L204.967 418.052L204.979 283.672Z" fill="#1C1714"/>
<path d="M256.91 209.264L307.443 209.25L307.44 261.76C301.885 261.915 295.625 261.772 290.025 261.767L256.943 261.755L256.91 209.264Z" fill="#1C1714"/>
<path d="M257.855 283.623L307.21 283.643C307.242 289.533 307.742 332.148 307.035 334.055L306.535 334.198L257.03 334.155C257.022 329.773 256.882 284.43 257.245 283.728L257.855 283.623Z" fill="#1C1714"/>
</g>
<defs>
<clipPath id="clip0_41_278">
<rect width="512" height="512" fill="white"/>
</clipPath>
</defs>
</svg>
