<svg width="435" height="127" viewBox="0 0 435 127" fill="none" xmlns="http://www.w3.org/2000/svg">
<path d="M69.3508 3.84739L72.2806 6.62407C74.6533 8.8731 78.0347 9.70673 81.1807 8.81833L85.0655 7.72104C89.8088 6.3814 94.7712 8.98526 96.3631 13.6502L97.6673 17.4704C98.7236 20.5646 101.33 22.8739 104.529 23.5498L108.478 24.3831C113.3 25.4017 116.485 30.0139 115.726 34.8835L115.105 38.8726C114.603 42.1028 115.838 45.359 118.356 47.4437L121.466 50.0174C125.262 53.1601 125.938 58.7236 123.003 62.6835L120.601 65.9269C118.654 68.5533 118.234 72.0105 119.495 75.0266L121.053 78.7507C122.954 83.298 120.967 88.5381 116.528 90.6809L112.892 92.4354C109.949 93.8567 107.97 96.7233 107.685 99.98L107.334 104.001C106.904 108.911 102.709 112.628 97.7831 112.461L93.7484 112.326C90.4821 112.216 87.3981 113.835 85.6322 116.586L83.4523 119.984C80.7898 124.132 75.3485 125.473 71.0636 123.037L67.5543 121.042C64.7124 119.426 61.23 119.426 58.3877 121.042L54.8781 123.037C50.5935 125.473 45.1523 124.132 42.49 119.984L40.3095 116.586C38.5439 113.835 35.4606 112.216 32.193 112.326L28.1586 112.461C23.2326 112.628 19.0376 108.911 18.6083 104.001L18.2564 99.98C17.9718 96.7233 15.9933 93.8567 13.0494 92.4354L9.41378 90.6809C4.97541 88.5381 2.98775 83.298 4.88949 78.7507L6.44689 75.0266C7.70783 72.0105 7.28839 68.5533 5.34172 65.9269L2.93856 62.6835C0.00413624 58.7236 0.679369 53.1601 4.47628 50.0174L7.58616 47.4437C10.1048 45.359 11.3398 42.1028 10.8367 38.8726L10.2156 34.8835C9.45773 30.0139 12.6417 25.4017 17.4641 24.3831L21.4135 23.5498C24.6119 22.8739 27.2191 20.5646 28.2747 17.4704L29.5786 13.6502C31.1708 8.98526 36.1329 6.3814 40.8766 7.72104L44.7614 8.81833C47.9073 9.70673 51.2887 8.8731 53.6617 6.62407L56.5912 3.84739C60.1687 0.457447 65.7733 0.457447 69.3508 3.84739Z" fill="#FBF8F5"/>
<mask id="mask0_69_1340" style="mask-type:luminance" maskUnits="userSpaceOnUse" x="41" y="38" width="47" height="58">
<path d="M41.2124 38.2236H87.6477V95.1042H41.2124V38.2236Z" fill="white"/>
</mask>
<g mask="url(#mask0_69_1340)">
<mask id="mask1_69_1340" style="mask-type:luminance" maskUnits="userSpaceOnUse" x="41" y="38" width="47" height="58">
<path d="M60.3565 86.6246C60.8563 84.9203 62.8787 38.2236 41.2119 38.2236V62.515C57.2545 53.1417 53.4825 85.4204 53.3802 92.8965C53.3802 96.6118 58.5614 94.6802 60.6746 93.1805C78.2851 80.7168 75.3651 51.6306 87.6472 38.6441L61.6972 38.7234C67.787 48.8355 69.3094 76.1492 60.3565 86.6246Z" fill="white"/>
</mask>
<g mask="url(#mask1_69_1340)">
<mask id="mask2_69_1340" style="mask-type:luminance" maskUnits="userSpaceOnUse" x="41" y="38" width="47" height="58">
<path d="M87.7303 38.1985H41.1362V95.1188H87.7303V38.1985Z" fill="white"/>
</mask>
<g mask="url(#mask2_69_1340)">
<mask id="mask3_69_1340" style="mask-type:luminance" maskUnits="userSpaceOnUse" x="41" y="38" width="47" height="58">
<path d="M41.2114 38.2236H87.6467V95.035H41.2114V38.2236Z" fill="white"/>
</mask>
<g mask="url(#mask3_69_1340)">
<mask id="mask4_69_1340" style="mask-type:luminance" maskUnits="userSpaceOnUse" x="41" y="38" width="47" height="58">
<path d="M60.3556 86.6246C60.8553 84.9203 62.8778 38.2236 41.2109 38.2236V62.515C57.2535 53.1417 53.4816 85.4204 53.3792 92.8965C53.3792 96.6118 58.5604 94.6802 60.6737 93.1805C78.2842 80.7168 75.3642 51.6306 87.6463 38.6441L61.6962 38.7234C67.7861 48.8355 69.3084 76.1492 60.3556 86.6246Z" fill="white"/>
</mask>
<g mask="url(#mask4_69_1340)">
<path d="M41.2109 38.2236H87.6463V94.9908H41.2109V38.2236Z" fill="#1C1714"/>
</g>
</g>
</g>
</g>
</g>
<mask id="mask5_69_1340" style="mask-type:luminance" maskUnits="userSpaceOnUse" x="149" y="1" width="286" height="126">
<path d="M434.191 1.06665H149.93V126.142H434.191V1.06665Z" fill="white"/>
</mask>
<g mask="url(#mask5_69_1340)">
<path d="M209.64 26.25H215.77C216.515 26.25 217.033 26.4614 217.326 26.8841C217.617 27.3053 217.601 27.8551 217.277 28.5351L186.385 100.979C185.962 102.082 185.353 102.633 184.559 102.633C183.764 102.633 183.141 102.082 182.687 100.979L151.792 28.5351C151.5 27.8551 151.492 27.3053 151.768 26.8841C152.044 26.4614 152.554 26.25 153.299 26.25H159.481C160.032 26.25 160.502 26.3633 160.89 26.59C161.28 26.8167 161.572 27.2057 161.766 27.7571L184.584 83.4147L207.352 27.7571C207.709 26.7524 208.472 26.25 209.64 26.25Z" fill="#FBF8F5"/>
<path d="M239.655 51.5488C243.029 51.5488 246.158 52.1492 249.044 53.35C251.931 54.5492 254.453 56.2439 256.61 58.4348C258.768 60.6242 260.455 63.2103 261.67 66.1938C262.887 69.1773 263.496 72.4533 263.496 76.0204C263.496 76.8314 263.301 77.3513 262.911 77.5795C262.523 77.8062 262.053 77.9196 261.502 77.9196H224.477C224.608 81.1297 225.386 83.9195 226.811 86.2881C228.239 88.6552 230.111 90.48 232.429 91.762C234.749 93.0424 237.288 93.6826 240.047 93.6826C242.64 93.6826 245.17 93.0508 247.635 91.7865C250.099 90.5206 252.175 88.7034 253.862 86.334C254.252 85.8156 254.633 85.5085 255.005 85.412C255.378 85.314 255.824 85.4113 256.343 85.703L259.799 88.2822C260.901 88.8642 261.08 89.7234 260.335 90.8583C258.809 93.1948 256.968 95.1981 254.812 96.8682C252.655 98.5392 250.312 99.8119 247.782 100.688C245.252 101.564 242.608 102.002 239.851 102.002C236.51 102.002 233.38 101.402 230.46 100.201C227.541 99.0002 224.963 97.2894 222.725 95.0671C220.487 92.8456 218.735 90.1952 217.469 87.1152C216.205 84.0336 215.573 80.5952 215.573 76.7984C215.573 73.0369 216.189 69.6077 217.423 66.5093C218.656 63.4117 220.376 60.7437 222.581 58.5053C224.787 56.2676 227.348 54.5492 230.267 53.35C233.187 52.1492 236.316 51.5488 239.655 51.5488ZM239.753 59.6723C237.678 59.6723 235.652 60.0943 233.673 60.9374C231.694 61.7813 229.967 63.0227 228.49 64.6622C227.015 66.3002 225.937 68.3028 225.255 70.6691H253.813C253.198 68.3028 252.185 66.3087 250.775 64.6867C249.363 63.0632 247.708 61.8219 245.809 60.9619C243.912 60.1027 241.893 59.6723 239.753 59.6723Z" fill="#FBF8F5"/>
<path d="M281.015 100.979H276.148C274.819 100.979 274.154 100.314 274.154 98.9849V54.566C274.154 53.2366 274.819 52.5719 276.148 52.5719H278.874C280.106 52.5719 280.835 53.1715 281.064 54.37L282.084 59.8194C283.577 56.9017 285.451 54.7942 287.705 53.497C289.96 52.1982 292.367 51.5488 294.928 51.5488C295.578 51.5488 296.258 51.6063 296.971 51.7204C297.686 51.8329 298.416 51.9708 299.161 52.1339C299.745 52.2625 300.151 52.5467 300.378 52.9854C300.604 53.4227 300.636 53.9335 300.476 54.517L299.308 58.9433C299.178 59.5605 298.901 59.974 298.478 60.1839C298.057 60.3945 297.539 60.435 296.922 60.3064C296.371 60.1762 295.852 60.0874 295.366 60.0399C294.88 59.9909 294.426 59.9664 294.003 59.9664C290.664 59.9664 287.997 61.2399 286.002 63.7861C284.006 66.3309 283.009 70.1008 283.009 75.0953V98.9849C283.009 100.314 282.345 100.979 281.015 100.979Z" fill="#FBF8F5"/>
<path d="M326.939 51.5488C329.633 51.5488 332.147 51.8659 334.481 52.4984C336.817 53.1294 338.86 54.1188 340.61 55.4666C342.362 56.8129 343.724 58.5558 344.697 60.6954C345.671 62.8358 346.158 65.4303 346.158 68.4789V98.9849C346.158 100.314 345.493 100.979 344.164 100.979H341.437C340.206 100.979 339.477 100.379 339.25 99.1779L338.374 94.5556C337.012 96.4386 335.438 97.9235 333.654 99.0094C331.871 100.096 330.006 100.866 328.061 101.319C326.114 101.774 324.216 102.002 322.366 102.002C320.226 102.002 318.199 101.726 316.286 101.175C314.372 100.624 312.669 99.7645 311.176 98.5959C309.685 97.428 308.518 95.9447 307.675 94.1451C306.831 92.344 306.41 90.1783 306.41 87.6481C306.41 84.0482 307.269 81.0731 308.986 78.7221C310.705 76.3696 313.065 74.6175 316.065 73.4657C319.067 72.314 322.449 71.7381 326.21 71.7381C327.995 71.7381 329.811 71.8445 331.66 72.0567C333.508 72.2673 335.404 72.5828 337.351 73.0032V69.113C337.351 66.6808 336.856 64.751 335.865 63.3236C334.877 61.8962 333.531 60.8746 331.828 60.2574C330.127 59.6409 328.221 59.3323 326.112 59.3323C324.103 59.3323 321.987 59.5605 319.766 60.0154C317.543 60.4687 315.33 61.0684 313.125 61.8135C311.858 62.2362 311.015 61.8472 310.594 60.6464L309.473 56.9982C309.118 55.7346 309.539 54.8747 310.738 54.419C313.465 53.4801 316.206 52.7672 318.963 52.2809C321.72 51.7931 324.379 51.5488 326.939 51.5488ZM323.827 94.9936C325.222 94.9936 326.705 94.7593 328.278 94.2891C329.85 93.8196 331.326 93.0577 332.704 92.004C334.083 90.9487 335.202 89.5619 336.062 87.8442C336.921 86.125 337.351 84.0329 337.351 81.5678V79.8647C335.697 79.5078 334.083 79.2398 332.511 79.0621C330.938 78.8829 329.439 78.7926 328.012 78.7926C325.546 78.7926 323.357 79.0767 321.444 79.6441C319.53 80.2123 318.021 81.129 316.917 82.3948C315.814 83.6591 315.263 85.3133 315.263 87.3571C315.263 89.1077 315.652 90.5421 316.43 91.6609C317.209 92.7805 318.248 93.6152 319.545 94.1665C320.841 94.7179 322.269 94.9936 323.827 94.9936Z" fill="#FBF8F5"/>
<path d="M380.941 26.2992C382.044 26.8184 382.418 27.6944 382.062 28.9273L381.039 32.3795C380.553 33.6132 379.71 34.0183 378.509 33.5956C377.892 33.3689 377.292 33.2081 376.708 33.1116C376.126 33.0136 375.607 32.9646 375.152 32.9646C373.432 32.9646 372.07 33.5405 371.066 34.6922C370.061 35.844 369.559 37.6528 369.559 40.1171V52.5719H376.708C378.039 52.5719 378.705 53.2366 378.705 54.566V58.3122C378.705 59.6416 378.039 60.3063 376.708 60.3063H369.559V98.9848C369.559 100.314 368.894 100.979 367.565 100.979H362.746C361.417 100.979 360.752 100.314 360.752 98.9848V60.3063H357.591C356.259 60.3063 355.594 59.6416 355.594 58.3122V54.566C355.594 53.2366 356.259 52.5719 357.591 52.5719H360.752V39.143C360.752 36.0944 361.335 33.5405 362.501 31.482C363.669 29.422 365.275 27.8644 367.32 26.8107C369.363 25.7554 371.715 25.2271 374.374 25.2271C375.411 25.2271 376.465 25.2929 377.535 25.4231C378.607 25.554 379.742 25.8458 380.941 26.2992Z" fill="#FBF8F5"/>
<path d="M424.195 52.5718H429.935C430.68 52.5718 431.191 52.7831 431.467 53.2059C431.742 53.627 431.734 54.1937 431.442 54.9059L401.328 122.629C400.906 123.634 400.128 124.136 398.994 124.136H393.689C392.943 124.136 392.433 123.925 392.157 123.502C391.882 123.081 391.906 122.531 392.231 121.851L403.567 96.7946L383.813 55.0039C383.521 54.2894 383.496 53.7051 383.74 53.2518C383.982 52.7985 384.51 52.5718 385.323 52.5718H391.015C392.15 52.5718 392.944 53.0741 393.398 54.0789L408.187 86.4809L421.907 54.0789C422.165 53.4953 422.482 53.0979 422.856 52.8873C423.23 52.6775 423.676 52.5718 424.195 52.5718Z" fill="#FBF8F5"/>
</g>
</svg>
