<svg width="435" height="126" viewBox="0 0 435 126" fill="none" xmlns="http://www.w3.org/2000/svg">
<path d="M69.3518 3.84739L72.2816 6.62407C74.6543 8.8731 78.0357 9.70673 81.1816 8.81833L85.0664 7.72104C89.8098 6.3814 94.7722 8.98526 96.3641 13.6502L97.6683 17.4704C98.7246 20.5646 101.331 22.8739 104.529 23.5498L108.479 24.3831C113.301 25.4017 116.486 30.0139 115.727 34.8835L115.106 38.8726C114.604 42.1028 115.839 45.359 118.357 47.4437L121.467 50.0174C125.263 53.1601 125.939 58.7236 123.004 62.6835L120.602 65.9269C118.655 68.5533 118.235 72.0105 119.496 75.0266L121.054 78.7507C122.955 83.298 120.968 88.5381 116.529 90.6809L112.893 92.4354C109.95 93.8567 107.971 96.7233 107.686 99.98L107.335 104.001C106.905 108.911 102.71 112.628 97.784 112.461L93.7494 112.326C90.4831 112.216 87.3991 113.835 85.6331 116.586L83.4533 119.984C80.7907 124.132 75.3495 125.473 71.0646 123.037L67.5553 121.042C64.7134 119.426 61.2309 119.426 58.3887 121.042L54.879 123.037C50.5945 125.473 45.1532 124.132 42.491 119.984L40.3105 116.586C38.5449 113.835 35.4616 112.216 32.194 112.326L28.1596 112.461C23.2336 112.628 19.0386 108.911 18.6093 104.001L18.2574 99.98C17.9727 96.7233 15.9943 93.8567 13.0503 92.4354L9.41476 90.6809C4.97639 88.5381 2.98873 83.298 4.89047 78.7507L6.44787 75.0266C7.7088 72.0105 7.28937 68.5533 5.3427 65.9269L2.93954 62.6835C0.0051128 58.7236 0.680346 53.1601 4.47726 50.0174L7.58714 47.4437C10.1057 45.359 11.3408 42.1028 10.8377 38.8726L10.2166 34.8835C9.4587 30.0139 12.6427 25.4017 17.4651 24.3831L21.4145 23.5498C24.6129 22.8739 27.2201 20.5646 28.2757 17.4704L29.5796 13.6502C31.1718 8.98526 36.1339 6.3814 40.8775 7.72104L44.7623 8.81833C47.9083 9.70673 51.2897 8.8731 53.6627 6.62407L56.5922 3.84739C60.1697 0.457447 65.7743 0.457447 69.3518 3.84739Z" fill="#1C1714"/>
<mask id="mask0_69_1339" style="mask-type:luminance" maskUnits="userSpaceOnUse" x="41" y="38" width="47" height="58">
<path d="M41.2158 38.2236H87.6511V95.1042H41.2158V38.2236Z" fill="white"/>
</mask>
<g mask="url(#mask0_69_1339)">
<mask id="mask1_69_1339" style="mask-type:luminance" maskUnits="userSpaceOnUse" x="41" y="38" width="47" height="58">
<path d="M60.3624 86.6246C60.8622 84.9203 62.8846 38.2236 41.2178 38.2236V62.515C57.2604 53.1417 53.4884 85.4204 53.3861 92.8965C53.3861 96.6118 58.5672 94.6802 60.6805 93.1805C78.291 80.7168 75.371 51.6306 87.6531 38.6441L61.703 38.7234C67.7929 48.8355 69.3152 76.1492 60.3624 86.6246Z" fill="white"/>
</mask>
<g mask="url(#mask1_69_1339)">
<mask id="mask2_69_1339" style="mask-type:luminance" maskUnits="userSpaceOnUse" x="41" y="38" width="47" height="58">
<path d="M87.7322 38.1987H41.1382V95.119H87.7322V38.1987Z" fill="white"/>
</mask>
<g mask="url(#mask2_69_1339)">
<mask id="mask3_69_1339" style="mask-type:luminance" maskUnits="userSpaceOnUse" x="41" y="38" width="47" height="58">
<path d="M41.2178 38.2236H87.6531V95.035H41.2178V38.2236Z" fill="white"/>
</mask>
<g mask="url(#mask3_69_1339)">
<mask id="mask4_69_1339" style="mask-type:luminance" maskUnits="userSpaceOnUse" x="41" y="38" width="47" height="58">
<path d="M60.3643 86.6246C60.8641 84.9203 62.8865 38.2236 41.2197 38.2236V62.515C57.2623 53.1417 53.4903 85.4204 53.388 92.8965C53.388 96.6118 58.5692 94.6802 60.6824 93.1805C78.2929 80.7168 75.3729 51.6306 87.655 38.6441L61.705 38.7234C67.7949 48.8355 69.3172 76.1492 60.3643 86.6246Z" fill="white"/>
</mask>
<g mask="url(#mask4_69_1339)">
<path d="M41.2197 38.2236H87.655V94.9908H41.2197V38.2236Z" fill="#FBF8F5"/>
</g>
</g>
</g>
</g>
</g>
<mask id="mask5_69_1339" style="mask-type:luminance" maskUnits="userSpaceOnUse" x="149" y="0" width="286" height="126">
<path d="M434.191 0.915771H149.93V125.991H434.191V0.915771Z" fill="white"/>
</mask>
<g mask="url(#mask5_69_1339)">
<path d="M209.638 26.0991H215.768C216.513 26.0991 217.031 26.3105 217.324 26.7332C217.615 27.1544 217.599 27.7042 217.275 28.3842L186.383 100.828C185.96 101.931 185.351 102.482 184.557 102.482C183.762 102.482 183.139 101.931 182.685 100.828L151.79 28.3842C151.498 27.7042 151.49 27.1544 151.766 26.7332C152.042 26.3105 152.552 26.0991 153.298 26.0991H159.479C160.03 26.0991 160.5 26.2125 160.888 26.4391C161.278 26.6658 161.57 27.0548 161.764 27.6062L184.582 83.2638L207.35 27.6062C207.707 26.6015 208.47 26.0991 209.638 26.0991Z" fill="#1C1714"/>
<path d="M239.659 51.3977C243.033 51.3977 246.162 51.9981 249.048 53.1988C251.935 54.3981 254.457 56.0928 256.614 58.2837C258.772 60.4731 260.459 63.0591 261.674 66.0427C262.891 69.0262 263.5 72.3022 263.5 75.8693C263.5 76.6802 263.304 77.2002 262.915 77.4284C262.526 77.6551 262.057 77.7684 261.506 77.7684H224.481C224.611 80.9786 225.389 83.7684 226.815 86.137C228.243 88.504 230.115 90.3289 232.433 91.6108C234.753 92.8912 237.292 93.5314 240.051 93.5314C242.644 93.5314 245.174 92.8997 247.639 91.6353C250.103 90.3695 252.179 88.5523 253.866 86.1829C254.256 85.6645 254.637 85.3574 255.009 85.2609C255.382 85.1629 255.828 85.2601 256.347 85.5519L259.803 88.1311C260.905 88.7131 261.084 89.5723 260.339 90.7072C258.813 93.0436 256.972 95.0469 254.816 96.7171C252.659 98.3881 250.316 99.6608 247.786 100.537C245.256 101.413 242.612 101.851 239.855 101.851C236.514 101.851 233.384 101.251 230.464 100.05C227.545 98.8491 224.967 97.1383 222.729 94.916C220.491 92.6944 218.739 90.044 217.473 86.964C216.208 83.8825 215.577 80.4441 215.577 76.6473C215.577 72.8858 216.193 69.4566 217.427 66.3582C218.66 63.2605 220.38 60.5925 222.585 58.3541C224.791 56.1165 227.352 54.3981 230.271 53.1988C233.191 51.9981 236.32 51.3977 239.659 51.3977ZM239.757 59.5212C237.682 59.5212 235.656 59.9431 233.677 60.7863C231.698 61.6302 229.97 62.8715 228.494 64.5111C227.019 66.1491 225.941 68.1516 225.259 70.5179H253.817C253.202 68.1516 252.189 66.1575 250.778 64.5356C249.367 62.9121 247.712 61.6708 245.813 60.8108C243.915 59.9516 241.897 59.5212 239.757 59.5212Z" fill="#1C1714"/>
<path d="M281.013 100.828H276.146C274.817 100.828 274.152 100.163 274.152 98.8338V54.4149C274.152 53.0855 274.817 52.4208 276.146 52.4208H278.872C280.104 52.4208 280.833 53.0204 281.062 54.2189L282.082 59.6682C283.575 56.7506 285.449 54.6431 287.703 53.3459C289.958 52.0471 292.365 51.3977 294.926 51.3977C295.576 51.3977 296.256 51.4551 296.969 51.5692C297.684 51.6818 298.414 51.8197 299.159 51.9828C299.743 52.1114 300.149 52.3955 300.376 52.8343C300.602 53.2716 300.634 53.7824 300.474 54.3659L299.307 58.7922C299.176 59.4094 298.899 59.8229 298.476 60.0327C298.055 60.2433 297.537 60.2839 296.92 60.1553C296.369 60.0251 295.85 59.9363 295.364 59.8888C294.878 59.8398 294.424 59.8153 294.001 59.8153C290.662 59.8153 287.995 61.0888 286 63.635C284.005 66.1797 283.007 69.9497 283.007 74.9442V98.8338C283.007 100.163 282.343 100.828 281.013 100.828Z" fill="#1C1714"/>
<path d="M326.938 51.3977C329.631 51.3977 332.145 51.7147 334.479 52.3473C336.815 52.9783 338.858 53.9677 340.609 55.3155C342.361 56.6617 343.723 58.4047 344.695 60.5443C345.669 62.6847 346.156 65.2792 346.156 68.3278V98.8338C346.156 100.163 345.492 100.828 344.162 100.828H341.436C340.205 100.828 339.475 100.228 339.249 99.0267L338.373 94.4044C337.01 96.2875 335.437 97.7724 333.652 98.8583C331.87 99.9449 330.005 100.715 328.059 101.168C326.112 101.623 324.215 101.851 322.365 101.851C320.224 101.851 318.197 101.575 316.284 101.024C314.371 100.473 312.667 99.6133 311.175 98.4447C309.684 97.2769 308.517 95.7936 307.674 93.994C306.83 92.1928 306.409 90.0272 306.409 87.497C306.409 83.897 307.267 80.922 308.985 78.571C310.704 76.2185 313.063 74.4663 316.064 73.3146C319.066 72.1629 322.447 71.587 326.209 71.587C327.993 71.587 329.81 71.6934 331.658 71.9055C333.506 72.1161 335.403 72.4316 337.35 72.8521V68.9619C337.35 66.5297 336.854 64.5999 335.864 63.1725C334.875 61.7451 333.53 60.7235 331.827 60.1063C330.125 59.4898 328.22 59.1812 326.111 59.1812C324.101 59.1812 321.986 59.4094 319.764 59.8643C317.542 60.3176 315.329 60.9172 313.123 61.6623C311.857 62.0851 311.013 61.696 310.593 60.4953L309.472 56.8471C309.117 55.5835 309.538 54.7235 310.737 54.2679C313.463 53.329 316.205 52.6161 318.962 52.1298C321.718 51.642 324.377 51.3977 326.938 51.3977ZM323.826 94.8425C325.22 94.8425 326.704 94.6081 328.277 94.1379C329.849 93.6685 331.324 92.9066 332.703 91.8528C334.081 90.7976 335.2 89.4107 336.06 87.6931C336.919 85.9739 337.35 83.8817 337.35 81.4167V79.7135C335.696 79.3567 334.082 79.0887 332.51 78.911C330.937 78.7318 329.438 78.6414 328.01 78.6414C325.545 78.6414 323.356 78.9255 321.443 79.493C319.529 80.0612 318.02 80.9779 316.915 82.2437C315.813 83.508 315.261 85.1621 315.261 87.206C315.261 88.9566 315.65 90.3909 316.428 91.5098C317.208 92.6293 318.246 93.4641 319.544 94.0154C320.84 94.5668 322.267 94.8425 323.826 94.8425Z" fill="#1C1714"/>
<path d="M380.945 26.1483C382.048 26.6675 382.421 27.5435 382.066 28.7765L381.043 32.2286C380.557 33.4623 379.713 33.8674 378.513 33.4447C377.895 33.218 377.295 33.0572 376.712 32.9607C376.13 32.8627 375.61 32.8137 375.155 32.8137C373.435 32.8137 372.074 33.3896 371.069 34.5413C370.064 35.6931 369.562 37.5019 369.562 39.9662V52.421H376.712C378.042 52.421 378.709 53.0857 378.709 54.4151V58.1613C378.709 59.4908 378.042 60.1555 376.712 60.1555H369.562V98.834C369.562 100.163 368.897 100.828 367.568 100.828H362.75C361.42 100.828 360.756 100.163 360.756 98.834V60.1555H357.594C356.263 60.1555 355.597 59.4908 355.597 58.1613V54.4151C355.597 53.0857 356.263 52.421 357.594 52.421H360.756V38.9921C360.756 35.9435 361.338 33.3896 362.505 31.3311C363.672 29.2712 365.278 27.7136 367.323 26.6598C369.367 25.6046 371.719 25.0762 374.377 25.0762C375.414 25.0762 376.468 25.142 377.539 25.2722C378.611 25.4032 379.746 25.6949 380.945 26.1483Z" fill="#1C1714"/>
<path d="M424.193 52.4207H429.933C430.678 52.4207 431.189 52.632 431.465 53.0547C431.74 53.4759 431.732 54.0426 431.44 54.7548L401.326 122.478C400.904 123.483 400.126 123.985 398.992 123.985H393.687C392.941 123.985 392.431 123.774 392.155 123.351C391.88 122.93 391.904 122.38 392.229 121.7L403.566 96.6435L383.811 54.8528C383.519 54.1383 383.494 53.554 383.738 53.1007C383.98 52.6473 384.508 52.4207 385.321 52.4207H391.013C392.148 52.4207 392.943 52.923 393.396 53.9277L408.185 86.3298L421.905 53.9277C422.164 53.3442 422.481 52.9468 422.854 52.7362C423.228 52.5263 423.674 52.4207 424.193 52.4207Z" fill="#1C1714"/>
</g>
</svg>
